<?xml version="1.0" encoding="utf-8"?>
<svg version="1.1" xmlns="http://www.w3.org/2000/svg" xmlns:xlink="http://www.w3.org/1999/xlink" x="0px" y="0px" xml:space="preserve" >
    
    <symbol id="luna__bold" viewBox="0 0 24 24" fill="none" stroke="currentColor" stroke-width="2" stroke-linecap="round" stroke-linejoin="round">
        <path d="M6 4h8a4 4 0 0 1 4 4 4 4 0 0 1-4 4H6z"></path>
        <path d="M6 12h9a4 4 0 0 1 4 4 4 4 0 0 1-4 4H6z"></path>
    </symbol>

    <symbol id="luna__underline" viewBox="0 0 24 24" fill="none" stroke="currentColor" stroke-width="2" stroke-linecap="round" stroke-linejoin="round">
        <path d="M6 3v7a6 6 0 0 0 6 6 6 6 0 0 0 6-6V3"></path>
        <line x1="4" y1="21" x2="20" y2="21"></line>
    </symbol>

    <symbol id="luna__italic" viewBox="0 0 24 24" fill="none" stroke="currentColor" stroke-width="2" stroke-linecap="round" stroke-linejoin="round">
        <line x1="19" y1="4" x2="10" y2="4"></line>
        <line x1="14" y1="20" x2="5" y2="20"></line>
        <line x1="15" y1="4" x2="9" y2="20"></line>
    </symbol>

    <symbol id="luna__strikethrough" x="0px" y="0px" viewBox="0 0 512 512" style="enable-background:new 0 0 512 512;" xml:space="preserve">
        <g>
            <g>
                <path fill="currentColor" d="M274.851,236l-9.084-4.735C216.654,205.665,176,179.623,176,120c0-44.112,35.888-80,80-80s80,35.888,80,80v20h40v-20
                    C376,53.832,322.168,0,256,0S136,53.832,136,120c0,37.679,11.893,68.705,36.358,94.851c7.336,7.839,15.458,14.819,23.947,21.149H0
                    v40h512v-40H274.851z"/>
            </g>
        </g>
        <g>
            <g>
                <path fill="currentColor" d="M380.201,316h-46.259C345.914,332.251,353,352.312,353,374c0,54.038-43.962,98-98,98c-54.038,0-98-43.962-98-98v-20h-40
                    v20c0,76.093,61.907,138,138,138s138-61.907,138-138C393,353.294,388.407,333.644,380.201,316z"/>
            </g>
        </g>
    </symbol>

    <symbol id="luna__quote" viewBox="0 0 16 16">
        <path fill="currentColor" d="M7 7v7h-7v-7.1c0-4.8 4.5-5.4 4.5-5.4l0.6 1.4c0 0-2 0.3-2.4 1.9-0.4 1.2 0.4 2.2 0.4 2.2h3.9z"></path>
        <path fill="currentColor" d="M16 7v7h-7v-7.1c0-4.8 4.5-5.4 4.5-5.4l0.6 1.4c0 0-2 0.3-2.4 1.9-0.4 1.2 0.4 2.2 0.4 2.2h3.9z"></path>
    </symbol>

    <symbol id="luna__code" viewBox="0 0 24 24" stroke-width="2" stroke-linecap="round" stroke-linejoin="round">
        <polyline fill="none" stroke="currentColor" points="16 18 22 12 16 6"></polyline>
        <polyline fill="none" stroke="currentColor" points="8 6 2 12 8 18"></polyline>
    </symbol>

    <symbol id="luna__image" viewBox="0 0 24 24" fill="none" stroke="currentColor" stroke-width="2" stroke-linecap="round" stroke-linejoin="round">
        <rect x="3" y="3" width="18" height="18" rx="2" ry="2"></rect>
        <circle cx="8.5" cy="8.5" r="1.5"></circle>
        <polyline points="21 15 16 10 5 21"></polyline>
    </symbol>

    <symbol id="luna__link" viewBox="0 0 24 24" fill="none" stroke="currentColor" stroke-width="2" stroke-linecap="round" stroke-linejoin="round">
        <path d="M15 7h3a5 5 0 0 1 5 5 5 5 0 0 1-5 5h-3m-6 0H6a5 5 0 0 1-5-5 5 5 0 0 1 5-5h3"></path>
        <line x1="8" y1="12" x2="16" y2="12"></line>
    </symbol>

    <symbol id="luna__separator" x="0px" y="0px" viewBox="0 0 998.048 998.048" fill="currentColor" style="enable-background:new 0 0 998.048 998.048;transform: rotate(45deg);" xml:space="preserve">
        <g>
            <path d="M632.224,539.975c-9.899-9.9-16.1-23.7-16.1-38.9c0-30.4,24.6-55,55-55h139.2l-74.7-74.7c-21.5-21.5-21.5-56.3,0-77.8
                s56.3-21.5,77.8,0l168.6,168.6l0.101,0.101c6.399,6.399,11.2,14.399,13.7,23.1c0,0,0,0,0,0.101c3.199,10.8,2.899,22.5-0.601,33.1
                c-2.7,8-7.3,15.4-13.2,21.4l-168.8,168.6c-21.5,21.5-56.3,21.5-77.8,0s-21.5-56.3,0-77.8l74.7-74.7H671.023
                C655.924,556.074,642.124,549.874,632.224,539.975z"/>
            <path d="M365.624,539.975c9.899-9.9,16.1-23.7,16.1-38.9c0-30.4-24.6-55-55-55h-139.1l74.7-74.7c21.5-21.5,21.5-56.3,0-77.8
                s-56.3-21.5-77.8,0l-168.5,168.6l-0.1,0.101c-6.4,6.399-11.2,14.399-13.7,23.1c0,0,0,0,0,0.101c-3.2,10.8-2.9,22.5,0.6,33.1
                c2.7,8,7.3,15.4,13.2,21.4l168.6,168.6c21.5,21.5,56.3,21.5,77.8,0s21.5-56.3,0-77.8l-74.8-74.7h139.2
                C341.924,556.074,355.724,549.874,365.624,539.975z"/>
            <path d="M568.924,924.774v-851.4c0-38.7-31.3-70-70-70s-70,31.3-70,70v851.3c0,38.7,31.3,70,70,70S568.924,963.374,568.924,924.774
                z"/>
        </g>
    </symbol>

    <symbol id="luna__numbered_list" viewBox="0 0 24 24">
        <path fill="currentColor" d="M2 17h2v.5H3v1h1v.5H2v1h3v-4H2v1zm1-9h1V4H2v1h1v3zm-1 3h1.8L2 13.1v.9h3v-1H3.2L5 10.9V10H2v1zm5-6v2h14V5H7zm0 14h14v-2H7v2zm0-6h14v-2H7v2z"/>
        <path d="M0 0h24v24H0z" fill="none"/>
    </symbol>

    <symbol id="luna__bulleted_list" viewBox="0 0 24 24">
        <path fill="currentColor" d="M4 10.5c-.83 0-1.5.67-1.5 1.5s.67 1.5 1.5 1.5 1.5-.67 1.5-1.5-.67-1.5-1.5-1.5zm0-6c-.83 0-1.5.67-1.5 1.5S3.17 7.5 4 7.5 5.5 6.83 5.5 6 4.83 4.5 4 4.5zm0 12c-.83 0-1.5.68-1.5 1.5s.68 1.5 1.5 1.5 1.5-.68 1.5-1.5-.67-1.5-1.5-1.5zM7 19h14v-2H7v2zm0-6h14v-2H7v2zm0-8v2h14V5H7z"/>
        <path fill="none" d="M0 0h24v24H0V0z"/>
    </symbol>

</svg>